<svg width="251" height="251" viewBox="0 0 251 251" fill="none" xmlns="http://www.w3.org/2000/svg">
<path d="M161.574 36.7996C156.094 27.4514 149.94 19.8998 143.373 14.1266C136.855 19.8637 130.72 27.3792 125.212 36.6461C125.267 36.7409 125.326 36.8312 125.381 36.926C139.693 61.2736 146.875 93.1639 146.92 125.036C146.87 156.908 139.693 188.799 125.381 213.146C115.511 229.852 103.613 240.902 91.0881 246.179C85.7714 248.44 80.3091 249.821 74.8696 250.074H109.057C128.041 250.074 147.148 237.891 161.574 213.277C175.905 188.902 183.086 156.967 183.118 125.041C183.086 93.1188 175.905 61.1788 161.574 36.8041V36.7996Z" fill="#246BEE"/>
<path d="M88.8499 213.27C94.3303 222.618 100.484 230.17 107.051 235.943C113.569 230.206 119.704 222.69 125.212 213.424C125.157 213.329 125.098 213.238 125.043 213.144C110.731 188.796 103.549 156.906 103.504 125.034C103.554 93.1613 110.731 61.271 125.043 36.9234C134.913 20.2176 146.811 9.16776 159.336 3.89108C164.653 1.63416 170.115 0.252928 175.554 0.000152588H143.39H141.366C122.383 0.000152588 103.276 12.183 88.8499 36.797C74.5189 61.1717 67.3375 93.1071 67.3057 125.034C67.3375 156.955 74.5189 188.895 88.8499 213.27Z" fill="#FFA600"/>
<path d="M91.5573 245.968C79.2001 240.615 67.4798 229.637 57.7332 213.144C43.4205 188.796 36.239 156.906 36.1936 125.033C36.2436 93.1611 43.4205 61.2709 57.7332 36.9232C67.6026 20.2175 79.5003 9.16761 92.0257 3.89093C97.3424 1.63401 102.805 0.252775 108.249 0H74.0608C55.0772 0 35.9707 12.1829 21.5442 36.7968C7.21324 61.1716 0.0318365 93.1115 0 125.033C0.0318365 156.955 7.21324 188.895 21.5442 213.27C35.9707 237.884 55.0772 250.067 74.0608 250.067H74.8704C80.3099 249.814 85.7767 248.433 91.0888 246.171C91.2434 246.104 91.4026 246.036 91.5573 245.968Z" fill="#FD015F"/>
<path d="M228.519 36.797C214.097 12.183 194.986 0.000152588 176.007 0.000152588H175.557C170.117 0.252928 164.651 1.63416 159.339 3.8956C159.12 3.98587 158.906 4.08518 158.688 4.17997C170.977 9.56046 182.634 20.511 192.33 36.9279C206.643 61.2755 213.824 93.1658 213.87 125.038C213.82 156.91 206.643 188.801 192.33 213.148C182.461 229.854 170.563 240.904 158.038 246.18C152.721 248.442 147.259 249.823 141.819 250.076H176.007C194.991 250.076 214.097 237.893 228.524 213.279C242.855 188.904 250.036 156.969 250.068 125.043C250.036 93.1207 242.855 61.1807 228.524 36.806L228.519 36.797Z" fill="#3DD695"/>
</svg>
